<svg version="1.1" viewBox="0.0 0.0 156.2204724409449 100.0" fill="none" stroke="none" stroke-linecap="square" stroke-miterlimit="10" xmlns:xlink="http://www.w3.org/1999/xlink" xmlns="http://www.w3.org/2000/svg"><clipPath id="p.0"><path d="m0 0l156.22047 0l0 100.0l-156.22047 0l0 -100.0z" clip-rule="nonzero"/></clipPath><g clip-path="url(#p.0)"><path fill="#000000" fill-opacity="0.0" d="m0 0l156.22047 0l0 100.0l-156.22047 0z" fill-rule="evenodd"/><path fill="#000000" fill-opacity="0.0" d="m-3.1968503 30.614174l162.61418 0l0 38.771652l-162.61418 0z" fill-rule="evenodd"/><path fill="#000000" d="m19.118649 45.440422l-4.718751 0l0 12.09375l-1.3125 0l0 -12.09375l-4.71875 0l0 -1.15625l10.750001 0l0 1.15625zm9.895935 12.09375l-1.28125 0l0 -5.421875q0 -1.671875 -0.578125 -2.484375q-0.5625 -0.828125 -1.65625 -0.828125q-0.546875 0 -1.078125 0.21875q-0.53125 0.21875 -1.0 0.59375q-0.453125 0.359375 -0.8125 0.875q-0.34375 0.5 -0.5 1.09375l0 5.953125l-1.265625 0l0 -13.625l1.265625 0l0 6.109375q0.578125 -1.109375 1.59375 -1.734375q1.03125 -0.640625 2.234375 -0.640625q0.828125 0 1.40625 0.3125q0.578125 0.3125 0.953125 0.859375q0.375 0.546875 0.546875 1.328125q0.171875 0.765625 0.171875 1.703125l0 5.6875zm6.892227 0.1875q-1.0625 0 -1.953125 -0.390625q-0.875 -0.40625 -1.53125 -1.109375q-0.65625 -0.703125 -1.015625 -1.609375q-0.359375 -0.921875 -0.359375 -1.96875q0 -1.015625 0.359375 -1.921875q0.359375 -0.90625 1.0 -1.578125q0.65625 -0.6875 1.546875 -1.09375q0.890625 -0.40625 1.9375 -0.40625q1.0625 0 1.9375 0.40625q0.890625 0.40625 1.53125 1.09375q0.640625 0.6875 0.984375 1.59375q0.359375 0.890625 0.359375 1.890625q0 0.15625 0 0.3125q0 0.140625 -0.015625 0.1875l-8.328125 0q0.0625 0.78125 0.359375 1.453125q0.3125 0.65625 0.796875 1.140625q0.484375 0.484375 1.109375 0.765625q0.625 0.265625 1.34375 0.265625q0.46875 0 0.921875 -0.125q0.46875 -0.140625 0.859375 -0.359375q0.390625 -0.234375 0.703125 -0.546875q0.328125 -0.328125 0.5 -0.71875l1.09375 0.296875q-0.21875 0.53125 -0.640625 0.96875q-0.40625 0.4375 -0.953125 0.765625q-0.53125 0.328125 -1.1875 0.5q-0.640625 0.1875 -1.359375 0.1875zm3.578125 -5.5625q-0.046875 -0.78125 -0.359375 -1.421875q-0.3125 -0.640625 -0.78125 -1.109375q-0.46875 -0.46875 -1.09375 -0.734375q-0.625 -0.265625 -1.34375 -0.265625q-0.703125 0 -1.34375 0.265625q-0.625 0.265625 -1.109375 0.734375q-0.46875 0.46875 -0.765625 1.125q-0.28125 0.640625 -0.34375 1.40625l7.140625 0zm17.099182 4.21875l0 1.15625l-8.90625 0l0 -13.25l8.734375 0l0 1.15625l-7.421875 0l0 4.78125l6.46875 0l0 1.09375l-6.46875 0l0 5.0625l7.59375 0zm16.546535 1.15625l-1.265625 0l0 -5.421875q0 -1.703125 -0.546875 -2.5q-0.546875 -0.8125 -1.609375 -0.8125q-0.546875 0 -1.046875 0.203125q-0.5 0.203125 -0.921875 0.578125q-0.40625 0.375 -0.734375 0.890625q-0.3125 0.515625 -0.484375 1.125l0 5.9375l-1.265625 0l0 -5.421875q0 -1.734375 -0.53125 -2.515625q-0.515625 -0.796875 -1.5937462 -0.796875q-1.109375 0 -1.96875 0.765625q-0.84375 0.765625 -1.21875 2.015625l0 5.953125l-1.265625 0l0 -9.71875l1.15625 0l0 2.203125q0.59375 -1.125 1.5625 -1.75q0.96875 -0.625 2.140625 -0.625q1.2343712 0 1.9687462 0.703125q0.734375 0.6875 0.90625 1.796875q1.359375 -2.5 3.75 -2.5q0.828125 0 1.390625 0.296875q0.5625 0.296875 0.90625 0.859375q0.359375 0.546875 0.515625 1.328125q0.15625 0.765625 0.15625 1.71875l0 5.6875zm6.832596 0.1875q-1.0625 0 -1.953125 -0.390625q-0.875 -0.40625 -1.515625 -1.09375q-0.640625 -0.703125 -1.0 -1.609375q-0.34375 -0.921875 -0.34375 -1.921875q0 -1.03125 0.359375 -1.9375q0.359375 -0.921875 1.0 -1.609375q0.65625 -0.6875 1.53125 -1.09375q0.875 -0.421875 1.921875 -0.421875q1.03125 0 1.921875 0.421875q0.890625 0.40625 1.53125 1.09375q0.640625 0.6875 1.0 1.609375q0.375 0.90625 0.375 1.9375q0 1.0 -0.359375 1.921875q-0.359375 0.90625 -1.0 1.609375q-0.640625 0.6875 -1.53125 1.09375q-0.875 0.390625 -1.9375 0.390625zm-3.53125 -5.0q0 0.8125 0.28125 1.515625q0.28125 0.703125 0.75 1.234375q0.484375 0.53125 1.125 0.828125q0.640625 0.296875 1.375 0.296875q0.71875 0 1.359375 -0.296875q0.65625 -0.3125 1.140625 -0.84375q0.484375 -0.53125 0.75 -1.234375q0.28125 -0.71875 0.28125 -1.53125q0 -0.8125 -0.28125 -1.53125q-0.265625 -0.71875 -0.75 -1.25q-0.484375 -0.53125 -1.140625 -0.828125q-0.640625 -0.3125 -1.359375 -0.3125q-0.734375 0 -1.375 0.3125q-0.625 0.296875 -1.109375 0.84375q-0.484375 0.53125 -0.765625 1.25q-0.28125 0.71875 -0.28125 1.546875zm15.016678 4.34375q-0.109375 0.0625 -0.328125 0.15625q-0.21875 0.09375 -0.5 0.1875q-0.265625 0.09375 -0.625 0.15625q-0.359375 0.078125 -0.75 0.078125q-0.40625 0 -0.78125 -0.109375q-0.375 -0.109375 -0.65625 -0.34375q-0.28125 -0.234375 -0.453125 -0.578125q-0.15625 -0.359375 -0.15625 -0.828125l0 -6.96875l-1.34375 0l0 -1.0l1.34375 0l0 -3.28125l1.265625 0l0 3.28125l2.234375 0l0 1.0l-2.234375 0l0 6.609375q0.03125 0.546875 0.375 0.796875q0.359375 0.25 0.796875 0.25q0.546875 0 0.953125 -0.171875q0.40625 -0.1875 0.53125 -0.265625l0.328125 1.03125zm1.5935974 0.46875l0 -9.71875l1.265625 0l0 9.71875l-1.265625 0zm0 -11.75l0 -1.875l1.265625 0l0 1.875l-1.265625 0zm8.207687 11.9375q-1.0625 0 -1.953125 -0.390625q-0.875 -0.40625 -1.515625 -1.09375q-0.640625 -0.703125 -1.0 -1.609375q-0.34375 -0.921875 -0.34375 -1.921875q0 -1.03125 0.359375 -1.9375q0.359375 -0.921875 1.0 -1.609375q0.65625 -0.6875 1.53125 -1.09375q0.875 -0.421875 1.921875 -0.421875q1.03125 0 1.921875 0.421875q0.890625 0.40625 1.53125 1.09375q0.640625 0.6875 1.0 1.609375q0.375 0.90625 0.375 1.9375q0 1.0 -0.359375 1.921875q-0.359375 0.90625 -1.0 1.609375q-0.640625 0.6875 -1.53125 1.09375q-0.875 0.390625 -1.9375 0.390625zm-3.53125 -5.0q0 0.8125 0.28125 1.515625q0.28125 0.703125 0.75 1.234375q0.484375 0.53125 1.125 0.828125q0.640625 0.296875 1.375 0.296875q0.71875 0 1.359375 -0.296875q0.65625 -0.3125 1.140625 -0.84375q0.484375 -0.53125 0.75 -1.234375q0.28125 -0.71875 0.28125 -1.53125q0 -0.8125 -0.28125 -1.53125q-0.265625 -0.71875 -0.75 -1.25q-0.484375 -0.53125 -1.140625 -0.828125q-0.640625 -0.3125 -1.359375 -0.3125q-0.734375 0 -1.375 0.3125q-0.625 0.296875 -1.109375 0.84375q-0.484375 0.53125 -0.765625 1.25q-0.28125 0.71875 -0.28125 1.546875zm18.662964 4.8125l-1.28125 0l0 -5.421875q0 -1.734375 -0.515625 -2.515625q-0.5 -0.796875 -1.5625 -0.796875q-0.5625 0 -1.125 0.203125q-0.5625 0.203125 -1.046875 0.578125q-0.46875 0.375 -0.84375 0.890625q-0.375 0.515625 -0.53125 1.109375l0 5.953125l-1.265625 0l0 -9.71875l1.15625 0l0 2.203125q0.59375 -1.0625 1.703125 -1.71875q1.109375 -0.65625 2.40625 -0.65625q0.8125 0 1.359375 0.296875q0.5625 0.296875 0.890625 0.84375q0.34375 0.546875 0.5 1.328125q0.15625 0.78125 0.15625 1.734375l0 5.6875zm2.7047272 0l0 -9.71875l1.265625 0l0 9.71875l-1.265625 0zm0 -11.75l0 -1.875l1.265625 0l0 1.875l-1.265625 0zm3.2389374 10.890625l6.5624924 -7.90625l-6.4062424 0l0 -0.953125l7.7968674 0l0 0.859375l-6.5468674 7.90625l6.5156174 0l0 0.953125l-7.9218674 0l0 -0.859375zm13.933159 1.046875q-1.0625 0 -1.953125 -0.390625q-0.875 -0.40625 -1.53125 -1.109375q-0.65625 -0.703125 -1.015625 -1.609375q-0.359375 -0.921875 -0.359375 -1.96875q0 -1.015625 0.359375 -1.921875q0.359375 -0.90625 1.0 -1.578125q0.65625 -0.6875 1.546875 -1.09375q0.890625 -0.40625 1.9375 -0.40625q1.0625 0 1.9375 0.40625q0.890625 0.40625 1.53125 1.09375q0.640625 0.6875 0.984375 1.59375q0.359375 0.890625 0.359375 1.890625q0 0.15625 0 0.3125q0 0.140625 -0.015625 0.1875l-8.328125 0q0.0625 0.78125 0.359375 1.453125q0.3125 0.65625 0.796875 1.140625q0.484375 0.484375 1.109375 0.765625q0.625 0.265625 1.34375 0.265625q0.46875 0 0.921875 -0.125q0.46875 -0.140625 0.859375 -0.359375q0.390625 -0.234375 0.703125 -0.546875q0.328125 -0.328125 0.5 -0.71875l1.09375 0.296875q-0.21875 0.53125 -0.640625 0.96875q-0.40625 0.4375 -0.953125 0.765625q-0.53125 0.328125 -1.1875 0.5q-0.640625 0.1875 -1.359375 0.1875zm3.578125 -5.5625q-0.046875 -0.78125 -0.359375 -1.421875q-0.3125 -0.640625 -0.78125 -1.109375q-0.46875 -0.46875 -1.09375 -0.734375q-0.625 -0.265625 -1.34375 -0.265625q-0.703125 0 -1.34375 0.265625q-0.625 0.265625 -1.109375 0.734375q-0.46875 0.46875 -0.765625 1.125q-0.28125 0.640625 -0.34375 1.40625l7.140625 0zm8.029358 -3.21875q-1.28125 0.03125 -2.234375 0.703125q-0.953125 0.671875 -1.34375 1.84375l0 6.046875l-1.265625 0l0 -9.71875l1.1875 0l0 2.328125q0.546875 -1.109375 1.453125 -1.75q0.921875 -0.640625 1.953125 -0.640625q0.15625 0 0.25 0.03125l0 1.15625z" fill-rule="nonzero"/></g></svg>